<svg xmlns="http://www.w3.org/2000/svg" width="128.94" height="47.045" viewBox="0 0 128.94 47.045">
  <g id="_2363516494688" transform="translate(0)">
    <path id="Caminho_353" data-name="Caminho 353" d="M8.821.01H5.606C5.149,2.449,1.836,20.93.05,30.909c-.1.643-.074,1.035.095,1.232s.532.284,1.154.284h.072l1.576,0,.383-2.2L8.821.01Z" transform="translate(0.01 -0.01)" fill="#ff7f00"/>
    <path id="Caminho_354" data-name="Caminho 354" d="M591.188,47.064h.093a3.68,3.68,0,0,0,2.369-.856,3.6,3.6,0,0,0,1.274-2.19,2.807,2.807,0,0,0-.549-2.3,2.527,2.527,0,0,0-2.095-.986,3.729,3.729,0,0,0-3.674,3.081,2.7,2.7,0,0,0,.532,2.287,2.528,2.528,0,0,0,2.049.969Zm1.965-1.457a2.742,2.742,0,0,0,.96-1.676,2.056,2.056,0,0,0-.384-1.711,1.9,1.9,0,0,0-1.58-.707,2.638,2.638,0,0,0-1.8.681,2.824,2.824,0,0,0-.943,1.7,2.044,2.044,0,0,0,.375,1.693,1.9,1.9,0,0,0,1.562.681,2.674,2.674,0,0,0,1.807-.663Zm-45.059-4.765-.131.768h-1.807l-.942,5.341h-.8l.943-5.341h-1.8l.131-.768h4.407Zm6.1,1.091a.913.913,0,0,0-.733-.332h-1.614l-.4,2.278h1.632a1.261,1.261,0,0,0,.846-.332,1.361,1.361,0,0,0,.454-.811.919.919,0,0,0-.183-.8Zm-.576,2.583.995,2.435h-.838l-.943-2.339h-1.518l-.41,2.339h-.812l1.074-6.109h2.427a1.516,1.516,0,0,1,1.239.6,1.618,1.618,0,0,1,.34,1.379,2.157,2.157,0,0,1-1.553,1.693Zm5.526.305h2.2l-.55-3.028Zm2.583,2.13-.244-1.37h-2.749l-.75,1.37H557.1l3.36-6.109h.916l1.2,6.109Zm3.851,0,1.074-6.109h.619l2.383,4.582.794-4.582h.812l-1.074,6.109h-.62l-2.374-4.582-.8,4.582h-.811Zm7.987-1.388.716-.375a1.342,1.342,0,0,0,1.5,1.091c.794,0,1.327-.341,1.44-.891a.658.658,0,0,0-.314-.759,3.486,3.486,0,0,0-.952-.419,3.473,3.473,0,0,1-1.187-.62,1.285,1.285,0,0,1-.393-1.3,1.708,1.708,0,0,1,.759-1.16,2.419,2.419,0,0,1,1.361-.4,1.934,1.934,0,0,1,1.946,1.326l-.716.367a1.27,1.27,0,0,0-1.292-.907,1.2,1.2,0,0,0-1.248.837.7.7,0,0,0,.157.637,1.038,1.038,0,0,0,.288.228,5.747,5.747,0,0,0,.786.331c.21.079.375.14.5.192a2.731,2.731,0,0,1,.463.244,1.6,1.6,0,0,1,.419.35,1.384,1.384,0,0,1,.235,1.143,1.7,1.7,0,0,1-.785,1.178,2.721,2.721,0,0,1-1.483.41h-.036a2.023,2.023,0,0,1-2.164-1.5ZM584.128,41.6h-1.37l-.428,2.409h1.222a1.519,1.519,0,0,0,1.571-1.274C585.254,42.037,584.862,41.6,584.128,41.6Zm.1-.759a1.647,1.647,0,0,1,1.353.567,1.667,1.667,0,0,1,.332,1.414,2.274,2.274,0,0,1-.794,1.405,2.509,2.509,0,0,1-1.658.541H582.2l-.384,2.182H581l1.073-6.109Zm25.864,0-.131.768h-1.806l-.942,5.341h-.8l.943-5.341h-1.8l.131-.768Zm6.547.768h-2.793l-.332,1.877h2.574l-.14.759H613.38l-.341,1.938h2.837l-.131.768H612.1l1.073-6.109h3.6Zm2.244,3.954.716-.375a1.342,1.342,0,0,0,1.5,1.091c.794,0,1.327-.341,1.44-.891a.658.658,0,0,0-.314-.759,3.488,3.488,0,0,0-.952-.419,3.474,3.474,0,0,1-1.187-.62,1.285,1.285,0,0,1-.392-1.3,1.709,1.709,0,0,1,.759-1.16,2.419,2.419,0,0,1,1.361-.4,1.934,1.934,0,0,1,1.946,1.326l-.716.367a1.27,1.27,0,0,0-1.292-.907,1.2,1.2,0,0,0-1.248.837.7.7,0,0,0,.157.637,1.04,1.04,0,0,0,.288.228,5.742,5.742,0,0,0,.786.331c.21.079.375.14.5.192a2.72,2.72,0,0,1,.463.244,1.594,1.594,0,0,1,.419.35,1.384,1.384,0,0,1,.235,1.143,1.7,1.7,0,0,1-.785,1.178,2.72,2.72,0,0,1-1.483.41h-.036a2.024,2.024,0,0,1-2.164-1.5Zm-17.7-1.047.995,2.435h-.838l-.943-2.339h-1.518l-.41,2.339h-.812l1.074-6.109h2.427a1.517,1.517,0,0,1,1.239.6,1.619,1.619,0,0,1,.34,1.379,2.158,2.158,0,0,1-1.553,1.693Zm.576-2.583a.913.913,0,0,0-.733-.332h-1.614l-.4,2.278h1.632a1.262,1.262,0,0,0,.846-.332,1.361,1.361,0,0,0,.454-.811.919.919,0,0,0-.183-.8Zm19.7-22.9-5.714-1.949c-1.369-.52-2.031-1.17-1.889-1.993l.047-.433c.236-1.04,1.228-1.56,3.069-1.56h6.526a1.483,1.483,0,0,0,1.507-1.212l.489-3.372c.094-.347-4.2-.455-6.795-.455-7.13,0-10.793,1.572-11.549,6.035l-.141.824c-.566,3.38.661,5.589,3.73,6.586l5.43,1.906c1.889.65,2.408,1.17,2.267,2.037l-.048.39c-.188,1.17-.991,1.473-3.494,1.473l-7.5-.013a1.729,1.729,0,0,0-1.744,1.347c-.25,1.347-.6,3.489-.6,3.489a82.505,82.505,0,0,0,9,.419c6.563,0,10.34-1.6,11.143-6.325l.094-.694c.567-3.249-.235-5.286-3.824-6.5ZM605.17,8.231l-.284,0c-.171,0-.427,0-1.011,0h-3.481c-1.144,0-1.513.311-1.715,1.442l-2.8,16a1,1,0,0,1-.722.776A13.466,13.466,0,0,1,592,26.79a4,4,0,0,1-3.208-1.051,3.353,3.353,0,0,1-.484-2.846l2.567-14.666-.3,0c-.15,0-.357.007-1,.007h-3.59c-1.145,0-1.513.311-1.716,1.442l-2.284,13.1c-.563,3.167-.143,5.614,1.247,7.272,1.358,1.621,3.617,2.443,6.715,2.443.165,0,.326-.007.489-.01,0,0,0,.007,0,.01a47.975,47.975,0,0,0,9.867-.747,1.692,1.692,0,0,0,1.179-1.337l1.229-7.592.02,0-.02,0L605.17,8.231Zm-34.75-.014A2.092,2.092,0,0,0,568.331,10c-.392,2.692-.965,6.29-1.312,8.346l-2.143,12.762c-.1.563-.082.918.057,1.084s.464.24,1.006.24h3.636c1.108,0,1.467-.31,1.668-1.44.635-3.772,2.707-16.087,2.742-16.229l.17-.94,5.487-.008c1.094,0,1.469-.314,1.669-1.4l.524-4.221c-1.922-.082-5.377.064-11.413.019Zm-10.619.02.721-4.27c.1-.551.075-.9-.069-1.076s-.465-.247-.994-.247h-3.636c-1.108,0-1.466.31-1.668,1.44L553.5,7.958l-2.9,15.9c-.725,4.2-.163,5.715,1.13,7.049,1,1.061,3.35,1.577,7.195,1.577.593,0,1.2-.012,1.813-.033,1.154-.041,1.525-.362,1.727-1.494l.678-4.12c-.355-.007-3.307-.059-3.616-.059a2.686,2.686,0,0,1-2.177-.652c-.442-.517-.547-1.337-.337-2.668l1.892-9.637h4.136c1.135,0,1.462-.284,1.669-1.438l.673-4.143H559.8ZM540.9,27.009a16.5,16.5,0,0,1-4.141.3c-2.592-.066-3.347-.653-2.976-2.548.327-1.734,1.2-2.4,3.26-2.347l4.7.12-.841,4.476Zm3.993-18.563a36.6,36.6,0,0,0-5.26-.455c-2.141,0-5.037.072-7.178.254-.029.131-.475,2.877-.735,4.238a1.123,1.123,0,0,0,1.1,1.334l6.555.011c2.818.072,3.789.591,3.388,2.662l-.3,1.555-5.505-.141c-3.078-.079-5.43.337-7.016,1.295-1.543.958-2.588,2.8-3.136,5.558-.606,3.325-.222,5.286,1.442,6.37,1.708,1.042,3.525,1.262,7.166,1.355a47.569,47.569,0,0,0,10.038-.654,1.692,1.692,0,0,0,1.2-1.314l2.768-14.938c.456-2.547.07-4.422-1.2-5.67a6.506,6.506,0,0,0-3.333-1.461Zm-22.727,2.474a5.089,5.089,0,0,1-5.418,4.483h-6.06a.342.342,0,0,1-.336-.4l1.492-8.484a.341.341,0,0,1,.336-.282h6.059a4.068,4.068,0,0,1,3.272,1.3,3.978,3.978,0,0,1,.655,3.381Zm5.548-7.767C526.052,1.045,523.594.02,520.2.02H506.853c-.439,2.347-3.523,19.549-5.347,29.734h0l-.035.2-.172.961c-.016.1-.028.19-.037.277l-.21,1.24h1.371v0l.125,0H505.7c1.265,0,1.647-.334,1.856-1.63l1.585-8.857a.341.341,0,0,1,.336-.281h6.853c7.113,0,11.7-3.642,12.9-10.252.589-3.4.078-6.179-1.517-8.261Z" transform="translate(-496.563 -0.019)" fill="#c60c35" fill-rule="evenodd"/>
  </g>
</svg>
